<svg xmlns="http://www.w3.org/2000/svg" width="128" height="128" viewBox="0 0 128 128" fill="none"><metadata><rdf:RDF xmlns:rdf="http://www.w3.org/1999/02/22-rdf-syntax-ns#" xmlns:dc="http://purl.org/dc/elements/1.1/"><rdf:Description><dc:creator>RealFaviconGenerator</dc:creator><dc:source>https://realfavicongenerator.net</dc:source></rdf:Description></rdf:RDF></metadata><path d="M39.1793 14.1516C41.5868 12.6364 41.5806 12.6477 44.0125 14.0011C47.8412 16.1319 51.6743 18.2549 55.5185 20.3576C56.1503 20.7032 56.6134 21.1311 56.9478 21.7826C60.6158 28.9288 64.3056 36.0639 67.9905 43.2014C69.0269 45.209 70.0667 47.2148 71.172 49.351C71.5765 48.7091 71.5456 48.1456 71.546 47.593C71.5484 44.7092 71.5647 41.8252 71.5338 38.9418C71.5259 38.2075 71.7546 37.7326 72.4004 37.3469C76.6243 34.8241 80.8337 32.277 85.0346 29.716C85.5258 29.4166 85.9095 29.3995 86.408 29.693C90.6476 32.1891 94.8889 34.6829 99.159 37.1262C99.9337 37.5695 100.063 38.143 100.062 38.9267C100.05 55.2681 100.052 71.6095 100.053 87.9509C100.053 93.2955 100.039 98.6402 100.077 103.984C100.085 105.01 99.8038 105.652 98.8612 106.209C94.7589 108.635 90.7044 111.142 86.6583 113.66C85.9391 114.108 85.3634 114.102 84.6405 113.708C80.0506 111.206 75.447 108.729 70.8367 106.265C70.2582 105.956 69.8991 105.51 69.5975 104.957C65.4587 97.3641 61.3127 89.7755 57.1631 82.1889C57.0024 81.895 56.8887 81.5534 56.3482 81.2694C56.3482 83.0476 56.2956 84.7156 56.3668 86.3783C56.4138 87.4762 56.0214 88.0924 55.0399 88.6479C51.2945 90.7681 47.6026 92.984 43.9193 95.2114C43.1773 95.66 42.6147 95.7283 41.8219 95.2827C37.3323 92.7589 32.8175 90.2791 28.2838 87.8352C27.4029 87.3604 27.0094 86.8233 27.0105 85.7805C27.0342 64.7867 27.0277 43.7928 27 22.7989C26.9987 21.8455 27.2679 21.2545 28.1174 20.7587C31.8023 18.6078 35.4476 16.3891 39.1793 14.1516ZM89.1591 110.633C92.0425 108.866 94.9133 107.077 97.8189 105.347C98.5025 104.94 98.7794 104.472 98.766 103.685C98.7274 101.418 98.7515 99.1494 98.7523 96.8812C98.7587 78.3903 98.7673 59.8993 98.7624 41.4083C98.7623 40.8254 98.9518 40.1782 98.4662 39.674C97.9773 39.6525 97.6375 39.9338 97.282 40.1446C94.0431 42.066 90.8285 44.0293 87.5645 45.907C86.676 46.4182 86.3789 47.0178 86.3801 48.0239C86.404 68.9752 86.3942 89.9266 86.4001 110.878C86.4002 111.274 86.2586 111.719 86.665 112.134C87.4498 111.663 88.2335 111.193 89.1591 110.633ZM48.65 40.3562C56.0474 53.9848 63.4731 67.5975 71.1276 81.1791C71.6327 80.7077 71.5529 80.3822 71.553 80.0874C71.5545 71.2837 71.549 62.48 71.551 53.6763C71.5511 53.1647 71.4516 52.698 71.2147 52.2387C69.2247 48.3802 67.2512 44.5133 65.2651 40.6528C62.2765 34.8435 59.2713 29.0428 56.301 23.2241C55.87 22.3798 55.528 22.087 54.5791 22.6913C51.1763 24.8581 47.7236 26.9479 44.2601 29.0173C43.3465 29.5632 43.1427 30.0874 43.6778 31.0562C45.35 34.0832 46.9472 37.1515 48.65 40.3562ZM43.4163 85.125C43.4167 87.965 43.2349 90.8119 43.5746 93.7152C43.8903 93.6098 44.0479 93.5852 44.1762 93.5103C47.5628 91.5367 50.9445 89.5548 54.3325 87.5836C54.8213 87.2993 55.0116 86.8926 55.011 86.3462C55.0085 84.0454 55.0108 81.7447 55.0247 79.444C55.0292 78.6983 54.8797 78.0192 54.5043 77.3551C51.0822 71.3003 47.6828 65.2327 44.2665 59.1746C44.1098 58.8967 44.0328 58.5056 43.4623 58.4323C43.2375 67.28 43.5094 76.0988 43.4163 85.125ZM40.5789 28.0932C41.7901 29.0456 42.897 28.988 44.1993 28.081C46.1483 26.7236 48.2448 25.5781 50.278 24.3416C51.7748 23.4313 53.2706 22.5195 54.7604 21.6123C54.5298 21.091 54.1234 21.0031 53.801 20.8248C50.0732 18.7627 46.3258 16.7355 42.6174 14.6392C41.8652 14.214 41.3267 14.2807 40.6268 14.7098C37.2566 16.7757 33.8536 18.788 30.4709 20.8335C30.0302 21.0999 29.5069 21.289 29.1776 21.9444C32.9428 23.9732 36.6872 25.9909 40.5789 28.0932ZM76.3519 40.0865C79.1459 41.7009 81.9529 43.2932 84.7248 44.9447C85.4436 45.373 86.0008 45.3941 86.728 44.9541C89.9487 43.0055 93.2073 41.1196 96.4406 39.1914C96.9528 38.886 97.5434 38.6552 97.9103 38.047C97.7261 37.8931 97.572 37.7237 97.3834 37.6129C93.7401 35.4731 90.0878 33.3486 86.4511 31.1978C85.8126 30.8202 85.3105 30.9988 84.749 31.3431C82.26 32.869 79.7556 34.3697 77.2605 35.8857C76.0285 36.6342 74.8047 37.3961 73.5058 38.196C74.3576 39.0877 75.3384 39.4613 76.3519 40.0865Z" fill="black"></path><path d="M41.0666 13.753C41.3459 13.5846 41.6934 13.5761 41.9807 13.7306L54.4157 20.4223C55.0465 20.7618 55.067 21.6593 54.4523 22.0273L42.5747 29.137C42.2901 29.3074 41.936 29.312 41.6471 29.149L29.5323 22.3161C28.9165 21.9688 28.9037 21.0866 29.5091 20.7215L41.0666 13.753Z" fill="white"></path><path d="M85.4989 30.4696C85.7847 30.2985 86.1406 30.2948 86.43 30.4598L97.7662 36.9227C98.3749 37.2698 98.3902 38.1418 97.7941 38.51L86.4234 45.5323C86.1383 45.7084 85.7803 45.7161 85.4878 45.5526L73.8552 39.0485C73.2357 38.7021 73.2226 37.8151 73.8318 37.4506L85.4989 30.4696Z" fill="white"></path><path d="M97.7142 39.6936C98.33 39.3219 99.1156 39.7662 99.1143 40.4855L99.0027 104.228C99.0021 104.543 98.8411 104.835 98.5756 105.005L87.3909 112.131C86.7746 112.524 85.968 112.079 85.9718 111.348L86.3065 47.0956C86.3081 46.774 86.4771 46.4764 86.7525 46.3101L97.7142 39.6936Z" fill="white"></path><path d="M43.1542 59.073C43.1542 58.11 44.4441 57.7904 44.8937 58.6421L55.0478 77.8763C55.1179 78.0091 55.1545 78.157 55.1545 78.3072V86.9005C55.1545 87.2257 54.9834 87.5269 54.7041 87.6934L44.55 93.7468C43.9347 94.1137 43.1542 93.6703 43.1542 92.9539V59.073Z" fill="white"></path><path d="M43.3439 30.5061C43.1087 30.0725 43.2559 29.5306 43.6783 29.2756L54.8834 22.5122C55.3418 22.2355 55.9387 22.4056 56.1823 22.8823L71.5588 52.9667C71.6221 53.0905 71.6566 53.227 71.6597 53.366L72.2615 80.1478C72.2833 81.1162 70.9892 81.4601 70.5273 80.6088L43.3439 30.5061Z" fill="white"></path></svg>